<svg xmlns="http://www.w3.org/2000/svg" width="132" height="85.104" viewBox="0 0 132 85.104">
    <defs>
        <style>
            .cls-2{fill:#5300c9}.cls-3{fill:#80f}
        </style>
    </defs>
    <g id="Logo" transform="translate(-471.45 -246.19)">
        <circle id="Ellipse_1" data-name="Ellipse 1" cx="9.553" cy="9.553" r="9.553" transform="translate(560.271 310.103)" style="fill:#d80067"/>
        <g id="Group_56" data-name="Group 56" transform="translate(471.45 246.19)">
            <path id="Path_504" data-name="Path 504" class="cls-2" d="M690.915 569.28h-6.548a.077.077 0 0 0-.078.078v6.042a.077.077 0 0 0 .078.078h6.421c2.237 0 3.46-1.224 3.46-3.164a3.008 3.008 0 0 0-3.333-3.034z" transform="translate(-652.51 -521.037)"/>
            <path id="Path_505" data-name="Path 505" class="cls-2" d="M684.378 502.736h6a3.179 3.179 0 0 0 3.24-2.044 3.127 3.127 0 0 0-3.039-4.032h-6.2a.077.077 0 0 0-.078.078v5.922a.077.077 0 0 0 .077.076z" transform="translate(-652.518 -459.261)"/>
            <path id="Path_506" data-name="Path 506" class="cls-2" d="M877.962 498.92h-6.5a.077.077 0 0 0-.078.078v6.639a.077.077 0 0 0 .078.078h6.5c2.489 0 4.093-1.35 4.093-3.418 0-2.027-1.604-3.377-4.093-3.377z" transform="translate(-811.664 -461.183)"/>
            <path id="Path_507" data-name="Path 507" class="cls-2" d="M552.856 278.056a.077.077 0 0 1 .078-.078h2.244a42.566 42.566 0 1 0-2.322 28.112zm-41.9 28.191h-14.609a.077.077 0 0 1-.078-.078v-28.113a.077.077 0 0 1 .078-.078h14.564c5.19 0 8.565 3.08 8.565 7.721a5.646 5.646 0 0 1-4.641 5.949v.169c2.616.211 5.443 2.237 5.443 6.5 0 4.683-3.164 7.929-9.325 7.929zm30.8 0a.074.074 0 0 1-.058-.027l-8.477-9.652a.08.08 0 0 0-.058-.027h-1.913a.077.077 0 0 0-.078.078v9.55a.077.077 0 0 1-.078.078h-6.807a.077.077 0 0 1-.078-.078v-28.113a.077.077 0 0 1 .078-.078h14.227c6.117 0 10.168 3.712 10.168 9.24 0 4.6-2.818 7.914-7.3 8.959a.075.075 0 0 0-.04.124l8.658 9.817a.077.077 0 0 1-.058.128z" transform="translate(-471.45 -246.19)"/>
        </g>
        <g id="Group_57" data-name="Group 57" transform="translate(557.15 259.772)">
            <path id="Path_508" data-name="Path 508" class="cls-3" d="M1147.2 613.979a.078.078 0 0 0-.072-.049h-11.793a.076.076 0 0 0-.072.049l-1.327 3.446a23.417 23.417 0 0 0 15.136 1.414z" transform="translate(-1120.72 -572.602)"/>
            <path id="Path_509" data-name="Path 509" class="cls-3" d="M1068.251 337.15a23.451 23.451 0 0 0-22.851 18.206h2.591a.077.077 0 0 1 .078.078v17.094a23.542 23.542 0 0 0 4.712 5.68l9.529-22.8a.078.078 0 0 1 .072-.048h7.028a.079.079 0 0 1 .072.048l10.624 25.421a23.445 23.445 0 0 0-11.854-43.675z" transform="translate(-1045.4 -337.15)"/>
            <path id="Path_510" data-name="Path 510" class="cls-3" d="M1166.073 521.687a.077.077 0 0 0 .072-.106l-3.515-8.992a.078.078 0 0 0-.145 0l-3.475 8.992a.078.078 0 0 0 .072.106z" transform="translate(-1142.042 -486.351)"/>
        </g>
    </g>
</svg>
